<svg width="195" height="89" viewBox="0 0 195 89" fill="none" xmlns="http://www.w3.org/2000/svg">
<g clip-path="url(#clip0_3_24)">
<path fill-rule="evenodd" clip-rule="evenodd" d="M130.883 80.5362C135.528 79.0858 141.247 77.1209 146.39 73.7056C151.533 70.2904 156.131 65.4404 158.547 60.029C160.978 54.6176 161.243 48.6448 159.466 43.1866C157.705 37.744 153.902 32.8316 149.476 29.4164C145.05 26.0011 140 24.0985 132.457 22.851C124.914 21.6034 114.877 21.0108 101.661 20.6833C88.4451 20.3558 72.0496 20.2934 59.3322 21.2447C46.5993 22.196 37.5599 24.1609 30.4999 27.0148C23.4555 29.8686 18.4059 33.6114 14.9305 37.6192C11.455 41.6115 9.55362 45.8845 9.11724 50.0171C8.69644 54.1497 9.74064 58.1576 14.3382 62.7581C18.9202 67.3429 27.0556 72.536 36.2352 76.1072C45.4304 79.6784 55.6542 81.6434 65.5974 82.735C75.5251 83.8111 85.1722 84.0138 94.0245 84.045C102.877 84.0762 110.934 83.9514 116.779 83.4212C122.608 82.891 126.223 81.9709 130.883 80.5362Z" fill="#91CBD6"/>
<path fill-rule="evenodd" clip-rule="evenodd" d="M140.702 74.2047C140.203 74.6881 139.455 75.3743 139.019 76.1228C138.582 76.8558 138.473 77.6511 138.738 78.3841C139.003 79.117 139.642 79.7876 140.982 80.4582C142.338 81.1288 144.395 81.7993 147.637 82.3608C150.879 82.9066 155.305 83.3432 159.715 83.7019C164.142 84.045 168.568 84.2945 173.274 84.1853C177.981 84.0762 182.953 83.6083 186.6 82.6727C190.231 81.7526 192.506 80.3646 193.753 79.1326C194.984 77.885 195.171 76.809 194.86 75.655C194.532 74.501 193.706 73.3002 192.584 72.4425C191.462 71.5847 190.044 71.0701 188.657 70.727C187.27 70.3995 185.914 70.228 184.059 69.9941C182.205 69.7602 179.851 69.4483 177.015 69.1831C174.194 68.9024 170.89 68.6997 167.477 68.6373C164.064 68.5749 160.541 68.6685 157.331 69.0116C154.105 69.3547 151.175 69.9317 148.619 70.6647C146.079 71.3976 143.912 72.2709 142.697 72.8635C141.465 73.4405 141.216 73.7212 140.702 74.2047Z" fill="#AFD6D5"/>
<path fill-rule="evenodd" clip-rule="evenodd" d="M102.674 41.3932C101.724 47.0541 113.584 44.6525 113.506 52.9801C113.412 61.76 103.594 61.9627 98.8248 58.0329C97.6871 57.1128 97.7182 55.5689 98.3416 54.6488C99.23 53.7599 100.181 53.5104 101.412 54.3993C103.142 55.6624 104.576 56.4578 106.243 56.0367C109.75 55.101 109.999 51.4518 105.9 50.0327C101.599 48.52 97.5468 47.1009 98.2793 41.0501C99.0118 35.0461 106.742 33.1123 111.464 36.8083C113.833 38.6485 111.402 41.5959 109.251 40.1924C106.68 38.4614 103.173 38.4614 102.674 41.3932Z" fill="#FEFEFE"/>
<path fill-rule="evenodd" clip-rule="evenodd" d="M52.7398 51.8417C53.8775 53.3544 55.436 53.3544 56.6672 51.8417L62.3869 44.5901V57.3779C62.3869 58.8906 63.3376 59.7483 64.6 59.7483C65.7065 59.7483 66.6572 58.8906 66.6572 57.3779V37.9155C66.6572 35.5451 63.8675 34.9837 62.7298 36.4028L54.8593 47.0541L47.2538 36.7771C46.6772 36.1221 46.1005 35.5451 45.0719 35.5451C44.5265 35.5451 43.0147 36.1221 43.0147 37.9155V57.3467C43.0147 58.8594 43.9654 59.7171 45.0719 59.7171C46.3032 59.7171 47.5655 58.8594 47.5655 57.3467V44.5901L52.7398 51.8417ZM131.662 59.7483C135.044 59.7483 134.795 55.2258 131.662 55.2258H123.995V50.0327H129.808C132.894 50.0327 132.894 45.5102 129.808 45.5102H123.995V40.3327H131.07C134.172 40.3327 134.234 35.8414 131.07 35.8414H121.548C120.348 35.8414 119.381 36.7459 119.381 38.0091V57.6274C119.381 58.8282 120.317 59.7795 121.548 59.7795H131.662V59.7483ZM88.4295 50.6409C88.4295 57.8769 76.8031 57.4402 76.8031 50.6409V38.1183C76.8031 34.859 72.3458 35.0149 72.3458 38.1183V50.6409C72.3458 63.569 92.8868 63.569 92.8868 50.6409V38.1183C92.8868 34.7966 88.4295 35.0461 88.4295 38.1183V50.6409Z" fill="white"/>
<path fill-rule="evenodd" clip-rule="evenodd" d="M162.038 0.643962C162.49 0.472419 162.895 0.394445 163.471 0.394445C164.033 0.37885 164.765 0.44123 165.435 0.628367C166.121 0.815505 166.76 1.11181 167.227 1.45489C167.711 1.79798 168.022 2.17225 168.241 2.67129C168.459 3.18592 168.583 3.79411 168.537 4.62064C168.49 5.44716 168.287 6.47642 167.976 7.64603C167.679 8.80005 167.274 10.0788 166.978 11.0769C166.666 12.075 166.464 12.7923 166.308 13.1666C166.152 13.5565 166.043 13.5877 165.482 13.6656C164.921 13.7436 163.908 13.8528 163.035 13.728C162.147 13.5877 161.399 13.2134 160.791 12.7455C160.183 12.2777 159.731 11.7319 159.419 11.1081C159.108 10.4843 158.936 9.78252 158.796 9.03397C158.656 8.28542 158.531 7.49008 158.562 6.56999C158.578 5.6499 158.749 4.62064 159.123 3.73173C159.482 2.82724 160.043 2.06309 160.557 1.56406C161.087 1.04943 161.586 0.815505 162.038 0.643962Z" fill="#275E73"/>
<path fill-rule="evenodd" clip-rule="evenodd" d="M166.448 13.3537C165.934 13.6032 165.622 13.6812 165.451 13.6812C165.295 13.6812 165.295 13.6032 165.342 12.6052C165.388 11.6071 165.482 9.72014 165.607 8.41017C165.731 7.08462 165.887 6.33606 166.214 5.71227C166.542 5.07289 167.04 4.54266 167.757 4.23077C168.459 3.90327 169.394 3.77852 170.095 3.96565C170.796 4.15279 171.295 4.65183 171.545 5.27562C171.794 5.88382 171.825 6.61677 171.576 7.4433C171.326 8.25423 170.796 9.15873 170.204 9.96966C169.612 10.7962 168.957 11.5135 168.287 12.0905C167.617 12.6676 166.947 13.0886 166.448 13.3537Z" fill="#275E73"/>
<path fill-rule="evenodd" clip-rule="evenodd" d="M150.848 10.9677C151.112 10.8274 151.393 10.4531 151.798 10.1724C152.203 9.89167 152.749 9.68894 153.435 9.8137C154.12 9.92286 154.962 10.3595 155.757 10.9677C156.552 11.5759 157.284 12.3557 157.923 13.2757C158.562 14.1958 159.123 15.2407 159.482 16.192C159.856 17.1433 160.043 18.001 160.089 18.7963C160.136 19.5916 160.027 20.3246 159.638 20.8548C159.248 21.385 158.562 21.6969 157.814 21.8373C157.066 21.9776 156.271 21.9465 155.383 21.7281C154.51 21.5098 153.575 21.1043 152.453 20.4182C151.331 19.7476 150.037 18.7963 149.149 17.9854C148.26 17.1744 147.777 16.5195 147.512 15.8177C147.232 15.1159 147.169 14.3674 147.247 13.7436C147.341 13.1198 147.575 12.6364 147.855 12.2777C148.136 11.919 148.432 11.6695 148.806 11.4823C149.18 11.2796 149.632 11.1237 149.975 11.0769C150.333 11.0457 150.583 11.1237 150.848 10.9677Z" fill="#F0621A"/>
<path fill-rule="evenodd" clip-rule="evenodd" d="M168.864 29.9154C169.207 30.0402 169.877 30.1961 170.828 30.2117C171.778 30.2273 173.01 30.087 174.256 29.7751C175.488 29.4788 176.734 29.0265 177.685 28.5431C178.62 28.044 179.259 27.5138 179.789 26.8432C180.319 26.1883 180.771 25.3773 180.958 24.8159C181.145 24.2389 181.083 23.9114 180.973 23.5215C180.864 23.1161 180.709 22.6638 180.444 22.274C180.179 21.8685 179.805 21.5254 179.321 21.2447C178.838 20.964 178.23 20.7457 177.779 20.6677C177.327 20.6053 177.015 20.6833 176.843 20.6989C176.672 20.6989 176.641 20.6365 176.485 20.4026C176.345 20.1531 176.064 19.7476 175.597 19.5137C175.113 19.2954 174.428 19.2486 173.851 19.3577C173.29 19.4513 172.822 19.6852 172.371 19.9971C171.919 20.309 171.467 20.6833 171.015 21.2915C170.563 21.8841 170.095 22.7106 169.768 23.4592C169.441 24.2233 169.238 24.9251 169.051 25.814C168.879 26.7185 168.724 27.8101 168.646 28.4339C168.552 29.0577 168.537 29.2136 168.521 29.3384C168.505 29.4632 168.505 29.5411 168.505 29.6347C168.505 29.7127 168.521 29.7907 168.864 29.9154Z" fill="#A78B12"/>
<path fill-rule="evenodd" clip-rule="evenodd" d="M170.968 38.9448C170.719 38.9136 170.454 38.8512 170.173 38.7421C169.893 38.6329 169.596 38.477 169.363 38.0871C169.129 37.6816 168.957 37.0111 168.833 36.3873C168.724 35.7635 168.661 35.1709 168.864 34.5471C169.067 33.9233 169.55 33.2683 169.986 32.7849C170.422 32.2858 170.812 31.9583 171.404 31.6464C171.981 31.3345 172.745 31.0382 173.508 30.9135C174.287 30.7731 175.082 30.8043 175.581 30.9135C176.08 31.0226 176.298 31.2254 176.469 31.4593C176.641 31.6932 176.766 31.9895 176.594 32.4262C176.438 32.8472 176.002 33.4242 175.612 33.8921C175.223 34.3599 174.911 34.703 174.693 34.9213C174.49 35.1397 174.397 35.2332 174.365 35.4672C174.334 35.7167 174.365 36.1066 174.163 36.6056C173.945 37.089 173.477 37.6816 173.025 38.0871C172.558 38.4926 172.09 38.7265 171.747 38.8356C171.404 38.9604 171.202 38.9604 170.968 38.9448Z" fill="#F5DE28"/>
<path fill-rule="evenodd" clip-rule="evenodd" d="M167.773 48.3485C168.053 48.3173 168.459 48.2549 168.879 48.0678C169.285 47.8962 169.705 47.6311 169.986 47.3036C170.267 46.9761 170.391 46.5863 170.5 46.056C170.609 45.5102 170.687 44.8241 170.609 44.1379C170.531 43.4517 170.267 42.7811 169.939 42.1885C169.596 41.6115 169.176 41.1125 168.474 40.5511C167.773 40.0053 166.791 39.3815 165.809 38.976C164.827 38.5705 163.845 38.3834 163.082 38.2898C162.318 38.1963 161.804 38.2119 161.399 38.3522C160.993 38.4926 160.713 38.7733 160.588 39.1164C160.464 39.475 160.479 39.9273 160.697 40.6135C160.916 41.2996 161.305 42.2353 161.913 43.0774C162.536 43.9351 163.362 44.6837 164.11 45.479C164.874 46.2588 165.575 47.0541 166.074 47.5375C166.588 48.021 166.9 48.1925 167.134 48.2705C167.352 48.3641 167.492 48.3797 167.773 48.3485Z" fill="#F0621A"/>
<path d="M92.5284 13.9776H92.4972C83.9254 14.0399 75.3537 14.1023 68.169 14.5858C64.5844 14.8353 61.3427 15.1784 58.2101 15.6462C55.062 16.114 52.0385 16.7066 48.8591 17.4084C45.633 18.1414 42.2355 18.9991 38.9314 19.9504C35.7521 20.8549 32.6507 21.8373 29.8454 22.8354C26.9465 23.8647 24.375 24.9251 22.1464 26.0012C19.9645 27.046 18.1254 28.1065 16.6293 29.1981C13.9642 31.1474 12.4213 33.1748 11.1277 34.8902L10.629 35.5452C9.9121 36.4809 9.22636 37.2918 8.50945 38.1183C7.79254 38.9448 7.06004 39.7402 6.21845 40.6603L6.20286 40.6759C4.55085 42.4849 2.50921 44.7149 1.46501 46.9762C0.950705 48.099 0.670175 49.253 0.607835 50.4226C0.529909 51.6078 0.68576 52.8398 0.99746 54.1342C1.30916 55.4441 1.7923 56.8165 2.64947 58.298C3.52224 59.7795 4.75345 61.3858 6.5769 63.148C8.33801 64.8478 10.6446 66.7036 13.1694 68.5282C15.9123 70.4931 18.9203 72.4269 21.8191 74.1111C24.5932 75.7174 27.2582 77.0897 29.8765 78.3373C35.3001 80.9261 39.7263 82.7195 45.5863 84.201C48.5474 84.9651 51.9761 85.6513 56.2932 86.2127C60.6414 86.7741 65.8936 87.2108 71.4574 87.4915C76.9901 87.7566 82.8189 87.8813 88.3204 87.8034C97.3753 87.6942 105.604 87.0548 111.776 86.5714C113.132 86.4778 114.379 86.3687 115.547 86.2907C116.514 86.2283 117.449 86.1659 118.306 86.1035C122.857 85.8072 125.584 85.6201 129.87 84.4661C132.613 83.7331 135.964 82.6103 139.237 81.2691C142.058 80.1151 144.816 78.8052 147.045 77.4484C149.648 75.8422 151.533 74.1891 152.874 73.0039C154.043 71.9591 154.837 71.2573 155.461 71.1949C156.645 71.0701 156.863 72.8791 157.113 74.7661C157.175 75.2963 157.237 75.8266 157.331 76.31C157.518 77.3237 157.767 78.1346 158.173 78.618C158.5 79.0235 158.967 79.1638 159.591 78.9143C160.245 78.6492 161.087 77.9786 162.069 77.1989C163.3 76.2164 164.749 75.078 166.386 74.2671C167.259 73.8304 168.163 73.5029 169.098 73.269C168.817 70.0097 168.77 65.9083 168.739 62.5086C168.708 59.9978 168.692 57.8613 168.583 56.7853C168.443 55.335 168.272 54.181 168.085 53.2141C167.898 52.2472 167.679 51.4519 167.414 50.7345C167.15 50.0016 166.838 49.3466 166.464 48.7072C166.105 48.0678 165.653 47.4596 165.123 46.867C164.656 46.3212 164.11 45.7754 163.565 45.2451C162.895 44.559 162.225 43.8884 161.71 43.249C161.29 42.7032 160.962 42.173 160.744 41.6739C160.479 41.0969 160.339 40.5511 160.292 40.0833C160.245 39.631 160.277 39.2567 160.386 38.9448C160.51 38.6018 160.729 38.3522 161.04 38.1807C161.336 38.0092 161.695 37.9312 162.116 37.9C162.521 37.8688 162.957 37.9 163.44 37.9624C163.939 38.0247 164.469 38.1339 164.999 38.2899C165.482 38.4146 165.965 38.6018 166.448 38.8045C166.947 39.0228 167.414 39.2879 167.851 39.5998C168.287 39.9117 168.708 40.2704 169.098 40.6915C169.144 40.7538 169.207 40.8162 169.254 40.8786C169.565 40.4263 169.893 39.9741 170.22 39.5374L170.485 39.1944C170.22 39.132 169.97 39.0072 169.752 38.8669C169.581 38.7421 169.409 38.5862 169.269 38.4146C169.113 38.6174 168.942 38.7889 168.786 38.9137C168.49 39.132 168.209 39.21 167.913 39.1788C167.633 39.1476 167.368 39.0384 167.072 38.8669C166.791 38.7265 166.495 38.5238 166.168 38.2587C165.84 38.0092 165.513 37.6817 165.155 37.2918C164.718 36.7928 164.251 36.169 163.721 35.4516C163.44 35.0773 163.129 34.6719 162.801 34.2352C162.334 33.627 161.804 32.972 161.227 32.3171C160.666 31.6621 160.027 30.9915 159.357 30.3521C158.297 29.3384 157.128 28.3872 156.209 27.6386C155.944 27.4203 155.695 27.2175 155.461 27.0148C154.962 26.6094 154.635 26.313 154.417 26.0947C154.167 25.8608 154.043 25.6893 153.965 25.5645C153.809 25.3306 153.778 25.1434 153.949 24.9719C154.058 24.8627 154.245 24.8159 154.541 24.8315C154.791 24.8627 155.18 24.9095 155.695 25.0499C156.069 25.159 156.505 25.315 157.019 25.5177C157.658 25.7828 158.391 26.1415 159.108 26.547C159.747 26.9057 160.37 27.2955 160.9 27.701C161.461 28.1376 161.913 28.5899 162.287 29.0577C162.661 29.5256 162.957 30.009 163.207 30.5236C163.487 31.0851 163.705 31.6621 163.923 32.2547C164.126 32.7693 164.329 33.2995 164.547 33.783C164.781 34.2976 165.061 34.8122 165.342 35.2801C165.638 35.7947 165.95 36.2469 166.246 36.6212C166.526 36.9643 166.776 37.245 166.994 37.4321C167.181 37.6193 167.337 37.744 167.461 37.822C167.477 37.7129 167.492 37.5569 167.508 37.323C167.524 37.0111 167.524 36.6368 167.539 36.2002C167.57 35.2177 167.602 33.9701 167.726 32.9097L167.757 32.5978C167.602 32.5666 167.461 32.473 167.337 32.3171C167.165 32.1143 167.025 31.8024 166.916 31.397L166.9 31.3034C166.838 31.1942 166.791 31.0851 166.729 30.9447C166.682 30.8044 166.62 30.6328 166.557 30.3989C166.495 30.1806 166.433 29.8999 166.37 29.5412C166.324 29.1981 166.261 28.777 166.199 28.2468L166.152 27.7478C166.043 26.7965 165.934 25.6581 165.653 24.8315C165.498 24.3637 165.279 23.9738 165.03 23.6619C164.781 23.3344 164.485 23.0693 164.188 22.8354C163.892 22.6015 163.596 22.3832 163.3 22.1804C163.004 21.9777 162.723 21.775 162.458 21.5722C162.334 21.5254 162.194 21.4631 162.053 21.4007C161.523 21.1668 160.916 20.8705 160.214 20.4806C160.012 20.9328 159.731 21.3227 159.373 21.619C158.999 21.9309 158.562 22.1492 158.063 22.274C157.565 22.3988 157.019 22.4299 156.427 22.3832C155.866 22.3208 155.258 22.1804 154.604 21.9465C153.949 21.7282 153.263 21.4007 152.5 20.964C151.72 20.5118 150.863 19.9504 150.084 19.3422C149.351 18.7964 148.681 18.2037 148.183 17.6735C147.653 17.1121 147.325 16.5975 147.107 16.114C146.889 15.615 146.811 15.1628 146.78 14.7261C146.749 14.305 146.764 13.884 146.842 13.4941C146.92 13.1198 147.06 12.7612 147.247 12.4493C147.434 12.1374 147.684 11.8723 147.964 11.6383C148.26 11.3888 148.603 11.1861 148.962 11.0145C149.305 10.8586 149.663 10.7494 150.022 10.6715C150.287 10.6247 150.551 10.5935 150.832 10.5935C151.003 10.2972 151.222 10.0477 151.502 9.86053C151.798 9.6422 152.126 9.50185 152.5 9.42387C152.889 9.3459 153.294 9.36149 153.715 9.43947C154.136 9.51744 154.557 9.67339 155.009 9.90731C155.445 10.1412 155.897 10.4531 156.334 10.8274C156.77 11.1861 157.191 11.6071 157.596 12.0906C157.97 12.5428 158.344 13.0575 158.671 13.5877C159.014 14.1647 159.341 14.7573 159.606 15.3499C159.887 15.9425 160.121 16.5351 160.277 17.1277C160.401 17.5644 160.495 18.001 160.526 18.4221C160.76 18.7184 160.962 18.9835 161.165 19.2174L161.399 19.5293C161.882 20.1531 162.225 20.5898 162.677 20.9796L162.77 21.0576C163.144 21.2135 163.471 21.3071 163.736 21.3539C164.064 21.4163 164.297 21.4007 164.469 21.3539C164.625 21.3071 164.734 21.2291 164.827 21.1512C164.905 21.0888 164.968 21.0264 164.999 20.9172C165.046 20.7925 165.092 20.5898 165.092 20.2467C165.123 19.7944 165.108 19.1082 165.077 18.157C165.061 17.5488 165.046 16.8626 165.03 16.0361C165.03 15.4435 165.03 14.7885 165.014 14.1179L164.968 14.1335C164.438 14.1959 163.877 14.1959 163.316 14.1491C162.801 14.1023 162.287 13.9932 161.819 13.8216C161.336 13.6501 160.9 13.385 160.495 13.0887C160.09 12.7612 159.731 12.3869 159.419 11.9658C159.123 11.5448 158.889 11.0925 158.702 10.5623C158.515 10.0633 158.375 9.48625 158.282 8.83127C158.173 8.1451 158.126 7.38095 158.141 6.60121C158.157 5.89945 158.219 5.19768 158.36 4.5427C158.515 3.84093 158.749 3.20154 159.076 2.62454C159.388 2.07872 159.793 1.59528 160.277 1.20541C160.76 0.799943 161.336 0.503642 161.944 0.300909C162.568 0.098177 163.238 0.00460815 163.908 0.00460815C164.594 0.00460815 165.279 0.129367 165.903 0.332099C166.542 0.534832 167.118 0.815538 167.586 1.18981C168.085 1.56409 168.443 2.01634 168.677 2.56216C168.817 2.84286 168.895 3.15476 168.957 3.49784C169.269 3.46666 169.581 3.49784 169.861 3.57582C170.267 3.66939 170.641 3.84093 170.952 4.05926C171.248 4.26199 171.498 4.49591 171.669 4.80781C171.856 5.11971 171.965 5.50958 171.996 5.97742C172.012 6.47645 171.95 7.06906 171.763 7.72404C171.607 8.28545 171.358 8.89365 170.999 9.50185C170.641 10.1256 170.173 10.7494 169.674 11.3108C169.129 11.919 168.537 12.4805 167.991 12.8859C167.477 13.2758 167.009 13.5565 166.526 13.7436C166.401 14.2427 166.292 14.7417 166.214 15.2407C166.043 16.1452 165.95 17.0341 165.903 17.8607C165.856 18.7964 165.872 19.6541 165.934 20.3558C165.996 20.9796 166.074 21.4631 166.214 21.8373C166.355 22.2116 166.526 22.4923 166.76 22.7262C166.916 22.8978 167.087 23.0537 167.29 23.1785C167.212 22.7418 167.072 22.2896 166.916 21.8373C166.822 21.5566 166.744 21.2603 166.666 20.9952C166.542 20.5586 166.479 20.1531 166.495 19.7164C166.511 19.2642 166.604 18.8119 166.853 18.3129C167.087 17.8295 167.446 17.3148 167.898 16.8158C168.35 16.2856 168.895 15.7554 169.456 15.2719C170.064 14.7729 170.687 14.3206 171.342 13.9776C171.919 13.6657 172.495 13.4473 173.072 13.3538C173.68 13.2602 174.256 13.3226 174.771 13.4785C175.332 13.6345 175.83 13.9308 176.204 14.305C176.578 14.6637 176.828 15.1004 176.937 15.5994C177.046 16.0829 177.03 16.6287 176.875 17.2057C176.719 17.7671 176.454 18.3597 176.095 18.9679C176.017 19.0927 175.924 19.233 175.83 19.3734C176.002 19.4513 176.158 19.5605 176.282 19.6697C176.532 19.888 176.734 20.1375 176.89 20.4338L176.906 20.4494C177.389 20.3714 177.856 20.387 178.293 20.465C178.776 20.543 179.228 20.7145 179.618 20.9328C180.038 21.1824 180.397 21.4943 180.662 21.8373C180.927 22.1804 181.129 22.5547 181.238 22.9602C181.348 23.35 181.363 23.7867 181.301 24.2701C181.238 24.7536 181.083 25.2682 180.833 25.7828C180.615 26.2663 180.303 26.7341 179.929 27.1552C179.524 27.5918 179.057 27.9817 178.495 28.3404C177.95 28.6991 177.342 29.011 176.656 29.3073C175.94 29.6191 175.16 29.8999 174.381 30.1338C173.649 30.3365 172.916 30.4925 172.23 30.586C171.576 30.664 170.952 30.6796 170.422 30.6484H170.376L170.329 30.7108C169.721 31.3502 169.3 31.7868 168.989 32.0831C168.739 32.3015 168.537 32.4574 168.365 32.5354C168.334 32.6757 168.318 32.8161 168.303 32.972C168.194 34.0169 168.163 35.2489 168.131 36.2158C168.116 36.668 168.1 37.0579 168.085 37.3542C168.053 37.9 168.007 38.1807 167.898 38.321C167.82 38.4302 167.742 38.4926 167.664 38.5082C167.773 38.555 167.866 38.5862 167.96 38.5862C168.116 38.6018 168.272 38.5706 168.428 38.4458C168.583 38.321 168.755 38.1339 168.942 37.9C168.77 37.5569 168.646 37.167 168.568 36.746C168.474 36.2781 168.443 35.7947 168.474 35.3424C168.505 34.8902 168.583 34.4691 168.739 34.0637C168.895 33.6738 169.113 33.2839 169.409 32.9097C169.721 32.5198 170.111 32.1143 170.563 31.7556C170.983 31.4281 171.451 31.1474 171.95 30.9135C172.433 30.7108 172.963 30.5548 173.477 30.4613C174.038 30.3677 174.599 30.3365 175.051 30.3677C175.503 30.3989 175.862 30.4925 176.142 30.6328C176.454 30.7888 176.672 31.0071 176.797 31.2878C176.937 31.5841 176.984 31.9272 176.906 32.3326C176.828 32.6757 176.656 33.05 176.376 33.4711C176.017 33.9857 175.488 34.5627 174.88 35.1865C174.849 35.4672 174.786 35.7791 174.693 36.1066C174.552 36.5432 174.334 37.0267 174.069 37.4789C173.836 37.8688 173.555 38.2275 173.228 38.5082C172.885 38.8045 172.511 39.0072 172.106 39.132C171.794 39.2411 171.467 39.2879 171.155 39.2879C170.999 39.4751 170.843 39.6778 170.687 39.8805C170.329 40.364 169.986 40.863 169.643 41.362C169.815 41.6116 169.986 41.8611 170.126 42.1262C170.407 42.6252 170.641 43.1398 170.781 43.6701C170.921 44.1847 170.983 44.6993 170.983 45.1984C170.968 45.713 170.874 46.1964 170.719 46.6175C170.578 47.0074 170.376 47.3349 170.142 47.6C169.877 47.9119 169.581 48.1458 169.254 48.3329C168.973 48.4889 168.661 48.598 168.381 48.6604C168.069 48.7228 167.773 48.7228 167.508 48.676C167.321 48.6292 167.165 48.5668 167.025 48.4889C167.399 49.1283 167.711 49.7988 167.976 50.5318C168.241 51.2803 168.474 52.1069 168.661 53.0893C168.864 54.0874 169.02 55.257 169.16 56.7229C169.269 57.8302 169.3 59.9666 169.331 62.5086C169.363 65.8771 169.409 69.9473 169.659 73.1287C170.142 73.0195 170.625 72.9415 171.108 72.8791C172.823 72.6764 174.552 72.7388 176.142 73.0663C177.685 73.3938 179.103 73.9552 180.132 74.6102C181.223 75.2963 181.909 76.1073 181.909 76.8558C181.909 77.5888 181.301 78.2126 180.366 78.6804C179.399 79.195 178.043 79.5537 176.734 79.6941C175.519 79.8344 174.303 79.8032 173.243 79.6629C172.137 79.5069 171.202 79.2262 170.578 78.8364C169.846 78.3841 169.409 76.4348 169.16 73.8616C168.287 74.0799 167.446 74.3918 166.651 74.7817C165.061 75.577 163.643 76.6999 162.427 77.6667C161.414 78.4621 160.541 79.1638 159.809 79.4602C158.905 79.8188 158.219 79.6161 157.705 78.9923C157.253 78.4309 156.957 77.5108 156.754 76.4192C156.661 75.9201 156.598 75.3743 156.521 74.8441C156.318 73.2534 156.131 71.7095 155.523 71.7875C155.087 71.8343 154.354 72.4737 153.263 73.4406C151.892 74.6414 149.99 76.3256 147.341 77.9475C145.097 79.3198 142.307 80.6454 139.455 81.815C136.151 83.1717 132.769 84.2945 130.026 85.0431C125.693 86.1971 122.935 86.3842 118.353 86.6961C117.511 86.7429 116.607 86.8053 115.579 86.8833C114.457 86.9613 113.194 87.0548 111.823 87.164C105.651 87.6474 97.4221 88.2712 88.336 88.396C82.8033 88.474 76.9745 88.3492 71.4262 88.0685C65.8624 87.7878 60.5791 87.3511 56.2152 86.7897C51.867 86.2283 48.4227 85.5265 45.4304 84.778C38.9159 83.1249 35.6586 81.7526 29.6272 78.8675C27.0089 77.62 24.3283 76.2476 21.523 74.6258C18.6241 72.9415 15.5851 70.9922 12.8265 68.996C10.2706 67.1558 7.94839 65.2845 6.17169 63.569C4.30149 61.76 3.0391 60.1226 2.15075 58.5787C1.24682 57.0504 0.7481 55.6313 0.420814 54.2745C0.0935283 52.9178 -0.046737 51.639 0.0156031 50.3914C0.0935283 49.1438 0.374059 47.9275 0.93512 46.7422C2.01049 44.3874 4.0833 42.1262 5.76648 40.286L5.79765 40.2548C6.63924 39.3347 7.37174 38.5238 8.07307 37.7284C8.77439 36.9175 9.44455 36.1066 10.1615 35.1865C10.3641 34.9214 10.5043 34.7342 10.6602 34.5471C11.9849 32.7849 13.5434 30.7264 16.2864 28.7302C17.8137 27.6074 19.6839 26.5314 21.8814 25.4709C24.1412 24.3793 26.7439 23.3188 29.6428 22.274C32.4637 21.2759 35.5807 20.2935 38.7756 19.3734C42.0796 18.4377 45.4772 17.58 48.7344 16.847C51.9294 16.1296 54.9684 15.537 58.1166 15.0692C61.2648 14.6013 64.5221 14.2427 68.1222 13.9932C75.3069 13.5097 83.9099 13.4473 92.4972 13.385H92.5284V13.9776ZM171.186 73.4717C170.687 73.5341 170.189 73.6121 169.705 73.7213C169.924 76.1541 170.282 77.9631 170.89 78.3373C171.435 78.6804 172.308 78.9299 173.321 79.0703C174.334 79.2106 175.503 79.2418 176.672 79.1171C177.919 78.9767 179.197 78.6336 180.101 78.1658C180.833 77.7915 181.316 77.3237 181.316 76.8558C181.316 76.31 180.74 75.6862 179.82 75.1092C178.854 74.4854 177.498 73.9552 176.017 73.6433C174.506 73.3314 172.838 73.269 171.186 73.4717ZM165.575 46.4771C165.809 46.7578 166.043 47.0385 166.246 47.3193C166.246 47.2569 166.23 47.1945 166.23 47.1165C166.214 46.867 166.246 46.5707 166.339 46.212C166.433 45.8689 166.573 45.4791 166.791 45.0268C167.009 44.5746 167.274 44.0599 167.617 43.4829C167.976 42.8591 168.412 42.1574 168.879 41.44L168.911 41.3932C168.833 41.2841 168.739 41.1749 168.661 41.0813C168.303 40.6915 167.913 40.364 167.508 40.0833C167.103 39.787 166.666 39.553 166.199 39.3347C165.762 39.1476 165.295 38.976 164.827 38.8513C164.329 38.7109 163.83 38.6018 163.362 38.5394C162.926 38.4926 162.505 38.4614 162.162 38.477C161.819 38.5082 161.539 38.5706 161.336 38.6797C161.149 38.7889 161.009 38.9448 160.947 39.1476C160.853 39.3659 160.838 39.6622 160.869 40.0209C160.916 40.4263 161.04 40.9098 161.274 41.44C161.492 41.8923 161.773 42.3757 162.178 42.8903C162.661 43.5141 163.316 44.1535 163.986 44.8241C164.531 45.3699 165.077 45.9157 165.575 46.4771ZM169.612 42.4069C169.518 42.2353 169.409 42.0638 169.285 41.8923C168.848 42.5472 168.459 43.2022 168.116 43.7636C167.789 44.3406 167.524 44.8397 167.321 45.2763C167.118 45.6974 166.978 46.0561 166.9 46.368C166.822 46.6487 166.807 46.8826 166.822 47.0853C166.822 47.2725 166.869 47.4284 166.947 47.5688C167.009 47.7091 167.103 47.8339 167.227 47.9119C167.337 48.0054 167.461 48.0678 167.617 48.099C167.804 48.1302 168.022 48.1302 168.272 48.0678C168.49 48.0366 168.739 47.943 168.973 47.8183C169.238 47.6623 169.487 47.4752 169.69 47.2257C169.893 46.9918 170.048 46.7267 170.173 46.4148C170.313 46.0561 170.376 45.635 170.391 45.1828C170.407 44.7461 170.344 44.2939 170.22 43.826C170.08 43.3582 169.877 42.8747 169.612 42.4069ZM170.89 38.6797C171.155 38.3366 171.435 38.0092 171.7 37.6973C172.215 37.1203 172.713 36.5588 173.243 36.0286C173.461 35.7947 173.695 35.5608 173.913 35.3268L174.319 34.9214V34.8902C174.334 34.5939 174.287 34.3132 174.21 34.0481C174.116 33.8142 173.976 33.5802 173.82 33.4087C173.664 33.2371 173.477 33.1124 173.306 33.0656C173.15 33.0188 172.978 33.0344 172.791 33.1124C172.589 33.2215 172.355 33.4243 172.121 33.7362C171.685 34.282 171.217 35.1553 170.765 35.9818C170.641 36.2158 170.516 36.4497 170.391 36.6524C170.126 37.1203 169.877 37.5569 169.628 37.9312C169.768 38.1027 169.908 38.2587 170.08 38.3834C170.313 38.5394 170.578 38.6329 170.89 38.6797ZM172.152 38.0871C171.996 38.2587 171.825 38.4458 171.669 38.6329C171.763 38.6174 171.841 38.6018 171.934 38.5706C172.261 38.477 172.573 38.3055 172.854 38.0559C173.119 37.822 173.368 37.5101 173.571 37.1826C173.804 36.7928 173.976 36.3717 174.116 35.9818L173.664 36.4341C173.15 36.9643 172.651 37.5101 172.152 38.0871ZM174.88 34.3444C175.285 33.9077 175.643 33.5023 175.893 33.1436C176.127 32.7849 176.267 32.473 176.329 32.2079C176.376 31.9428 176.36 31.7244 176.267 31.5529C176.189 31.3814 176.064 31.2566 175.877 31.163C175.659 31.0539 175.378 30.9759 175.004 30.9603C174.599 30.9291 174.1 30.9603 173.571 31.0539C173.103 31.1318 172.62 31.2566 172.184 31.4593C171.732 31.6621 171.311 31.9272 170.921 32.2235C170.516 32.5354 170.157 32.9097 169.877 33.2683C169.612 33.6114 169.425 33.9389 169.285 34.282C169.16 34.6251 169.082 34.9838 169.067 35.3736C169.035 35.7791 169.067 36.2158 169.144 36.6368C169.191 36.8863 169.254 37.1047 169.331 37.323C169.503 37.0267 169.69 36.7148 169.893 36.3561C170.002 36.1378 170.126 35.9194 170.251 35.7011C170.719 34.8434 171.202 33.9545 171.654 33.3775C171.965 32.9876 172.246 32.7225 172.542 32.5822C172.854 32.4262 173.165 32.4106 173.461 32.5042C173.742 32.5822 174.023 32.7693 174.241 33.0032C174.459 33.2371 174.646 33.5334 174.755 33.8609C174.817 34.0169 174.849 34.1728 174.88 34.3444ZM165.591 36.9019C165.887 37.2294 166.168 37.4945 166.433 37.7129C166.23 37.5257 166.012 37.2762 165.778 36.9799C165.482 36.6056 165.155 36.1222 164.827 35.592C164.547 35.0929 164.251 34.5627 164.017 34.0325C163.768 33.5023 163.565 32.972 163.378 32.473C163.16 31.8804 162.926 31.3034 162.677 30.7888C162.443 30.3053 162.162 29.8531 161.819 29.4164C161.477 28.9954 161.071 28.5743 160.541 28.1688C160.043 27.779 159.435 27.4047 158.827 27.046C158.126 26.6561 157.409 26.313 156.801 26.0635C156.302 25.8608 155.882 25.7204 155.539 25.6269C155.133 25.5177 154.822 25.4553 154.604 25.4397C154.65 25.5021 154.728 25.5801 154.822 25.6737C155.04 25.892 155.352 26.1727 155.835 26.5626C156.022 26.7341 156.287 26.9524 156.583 27.1864C157.518 27.9349 158.702 28.9018 159.762 29.9154C160.448 30.586 161.087 31.2566 161.679 31.9272C162.256 32.5978 162.786 33.2683 163.269 33.8765C163.596 34.3132 163.908 34.7187 164.188 35.1085C164.703 35.8103 165.17 36.4185 165.591 36.9019ZM167.851 32.0052C167.913 31.5841 168.007 31.1942 168.116 30.8199C168.178 30.586 168.256 30.3521 168.334 30.1182C168.163 29.9154 168.194 29.6191 168.272 29.1045L168.303 28.8706C168.318 28.7146 168.35 28.4807 168.381 28.2312C168.459 27.4047 168.583 26.313 168.833 25.2214C168.911 24.9095 168.989 24.582 169.098 24.2701C168.926 24.2701 168.77 24.2701 168.615 24.2545C168.381 24.2233 168.147 24.1766 167.913 24.1142C167.882 24.5664 167.789 25.0031 167.679 25.4553L167.602 25.7828C167.524 26.1727 167.446 26.5782 167.383 27.0148C167.321 27.4515 167.274 27.9193 167.259 28.4028C167.243 28.9174 167.259 29.4632 167.305 29.9778C167.337 30.4613 167.399 30.8979 167.492 31.241C167.57 31.5685 167.664 31.8024 167.789 31.9428C167.804 31.9584 167.82 31.9896 167.851 32.0052ZM168.677 30.9759C168.615 31.2254 168.552 31.4749 168.49 31.7244L168.583 31.6465C168.848 31.4125 169.191 31.0695 169.643 30.586C169.316 30.5392 169.051 30.4769 168.864 30.4145H168.848C168.786 30.6016 168.739 30.7888 168.677 30.9759ZM169.363 29.1357C169.254 29.3852 169.144 29.6191 169.051 29.8687C169.3 29.9466 169.674 30.009 170.142 30.0558C170.75 29.3852 171.529 28.5431 172.293 27.701C172.994 26.9212 173.68 26.1571 174.241 25.5333C174.88 24.8004 175.363 24.2077 175.721 23.7243C176.064 23.2409 176.298 22.8354 176.438 22.4767C176.563 22.1336 176.61 21.8373 176.594 21.5566C176.594 21.4007 176.563 21.2603 176.532 21.1356C176.111 21.2447 175.659 21.4319 175.207 21.7282C174.662 22.0557 174.1 22.5235 173.555 23.0537C172.947 23.6463 172.355 24.3325 171.825 25.0343C171.326 25.6893 170.874 26.3598 170.469 27.0304C170.048 27.7478 169.674 28.4651 169.363 29.1357ZM168.911 28.7146C169.207 28.0909 169.565 27.4047 169.97 26.7341C170.376 26.0479 170.843 25.3618 171.358 24.6912C171.903 23.9582 172.511 23.2565 173.134 22.6327C173.726 22.0713 174.319 21.5878 174.895 21.2291C175.378 20.9172 175.846 20.7145 176.298 20.5898C176.189 20.4026 176.064 20.2467 175.908 20.1219C175.784 20.0127 175.659 19.9348 175.503 19.8568C175.254 20.1843 175.004 20.4962 174.724 20.8081C174.241 21.3695 173.711 21.8685 173.165 22.3208C172.604 22.7886 172.028 23.1785 171.498 23.4904C170.968 23.7867 170.469 24.005 170.002 24.1298C169.908 24.161 169.815 24.1766 169.737 24.1922C169.612 24.5664 169.503 24.9563 169.409 25.3462C169.16 26.4066 169.051 27.4827 168.957 28.2936L168.911 28.7146ZM178.199 21.042C177.856 20.9796 177.498 20.964 177.108 21.0108C177.14 21.1824 177.171 21.3539 177.186 21.5254C177.202 21.8841 177.14 22.274 176.984 22.6795C176.843 23.0849 176.578 23.5372 176.189 24.0674C175.815 24.582 175.316 25.1746 174.677 25.9232C174.1 26.5782 173.415 27.3423 172.729 28.0909C172.106 28.777 171.467 29.4788 170.906 30.087C171.295 30.0714 171.716 30.0558 172.152 30.009C172.823 29.9154 173.524 29.7595 174.21 29.5568C174.973 29.3384 175.737 29.0733 176.423 28.777C177.077 28.4807 177.669 28.1844 178.184 27.8413C178.698 27.5138 179.134 27.1552 179.493 26.7653C179.836 26.3754 180.116 25.9544 180.319 25.5333C180.537 25.0811 180.662 24.6132 180.724 24.1922C180.771 23.8023 180.755 23.4436 180.662 23.1005C180.584 22.773 180.428 22.4767 180.21 22.2116C179.976 21.9153 179.68 21.6502 179.321 21.4475C178.994 21.2603 178.605 21.1044 178.199 21.042ZM169.285 23.6619C169.363 23.4748 169.441 23.2721 169.518 23.0849C169.783 22.4611 170.095 21.8685 170.454 21.3539C170.812 20.8549 171.217 20.4338 171.622 20.1063C172.09 19.732 172.573 19.4669 173.025 19.2954C173.446 19.1394 173.867 19.0615 174.241 19.0303C174.615 19.0147 174.958 19.0615 175.269 19.155C175.394 18.9835 175.488 18.8275 175.581 18.656C175.924 18.1102 176.173 17.5644 176.314 17.0497C176.438 16.5663 176.454 16.1296 176.36 15.7398C176.282 15.3499 176.08 15.0068 175.799 14.7105C175.488 14.4142 175.082 14.1803 174.615 14.0399C174.163 13.8996 173.68 13.8684 173.165 13.9464C172.667 14.0087 172.137 14.2115 171.607 14.4922C171.015 14.8197 170.407 15.2407 169.846 15.7242C169.285 16.1764 168.77 16.6911 168.334 17.1901C167.929 17.6735 167.602 18.1414 167.383 18.5624C167.181 18.9835 167.087 19.3734 167.072 19.732C167.056 20.0907 167.134 20.465 167.227 20.8393C167.305 21.1044 167.399 21.3851 167.477 21.6502C167.664 22.2272 167.851 22.8042 167.913 23.3656L167.929 23.4904C168.163 23.584 168.412 23.6463 168.677 23.6619C168.879 23.6931 169.082 23.6931 169.285 23.6619ZM170.064 23.3188L169.97 23.5216C170.36 23.4124 170.765 23.2253 171.202 22.9758C171.716 22.6951 172.261 22.3052 172.791 21.8529C173.306 21.4319 173.82 20.9484 174.287 20.4182C174.506 20.1687 174.708 19.9192 174.911 19.6697C174.708 19.6385 174.49 19.6229 174.272 19.6229C173.945 19.6385 173.602 19.7008 173.228 19.8412C172.823 19.9972 172.402 20.2311 171.996 20.5586C171.622 20.8549 171.264 21.2447 170.937 21.697C170.609 22.1648 170.313 22.7106 170.064 23.3188ZM166.729 27.5918C166.744 27.3735 166.776 27.1396 166.791 26.9368C166.853 26.4846 166.947 26.0635 167.04 25.6425L167.103 25.3306C167.212 24.8315 167.321 24.3637 167.337 23.8803C166.963 23.6931 166.604 23.428 166.324 23.1317C166.043 22.8354 165.825 22.4923 165.669 22.0401C165.591 21.8217 165.513 21.5722 165.466 21.3071C165.388 21.4163 165.311 21.5098 165.201 21.6034C165.061 21.7126 164.89 21.8373 164.625 21.9153C164.469 21.9621 164.266 21.9933 164.033 21.9777C164.204 22.1024 164.375 22.2272 164.547 22.3676C164.89 22.6327 165.201 22.929 165.498 23.3033C165.778 23.6619 166.027 24.0986 166.214 24.6444C166.495 25.5177 166.62 26.6405 166.729 27.5918ZM165.622 15.2407L165.638 15.1472C165.7 14.7417 165.778 14.3518 165.872 13.962C165.794 13.9776 165.7 14.0087 165.607 14.0243C165.607 14.4454 165.607 14.8509 165.622 15.2407ZM166.043 13.2914C166.37 11.9658 166.807 10.6559 167.212 9.40828L167.259 9.23673C167.555 8.30105 167.835 7.41214 168.053 6.60121C168.256 5.79028 168.412 5.05733 168.428 4.41794C168.428 4.33996 168.428 4.26199 168.428 4.18402C168.178 4.27759 167.929 4.38675 167.679 4.5427C167.337 4.76102 167.009 5.04173 166.744 5.38482C166.479 5.7435 166.261 6.18015 166.105 6.74156C165.934 7.33417 165.825 8.08272 165.747 9.0496C165.685 9.90731 165.638 10.9366 165.622 11.997C165.622 12.4649 165.607 12.9483 165.607 13.4161C165.747 13.385 165.903 13.3382 166.043 13.2914ZM167.757 9.57982C167.414 10.6871 167.04 11.8411 166.729 13.0107C167.009 12.8547 167.321 12.6676 167.633 12.4181C168.163 12.0282 168.724 11.498 169.238 10.921C169.721 10.3752 170.157 9.79815 170.5 9.20554C170.828 8.64413 171.046 8.08272 171.202 7.56809C171.373 6.97549 171.435 6.44526 171.404 6.00861C171.389 5.63433 171.311 5.33803 171.17 5.10411C171.03 4.88578 170.843 4.69865 170.609 4.5427C170.36 4.37115 170.048 4.21521 169.721 4.13723C169.503 4.09045 169.269 4.05926 169.004 4.07485C169.02 4.19961 169.02 4.30877 169.004 4.43353C168.989 5.11971 168.848 5.89945 168.615 6.75716C168.412 7.58368 168.116 8.47259 167.82 9.40828L167.757 9.57982ZM168.381 3.59141C168.334 3.31071 168.256 3.0456 168.147 2.79608C167.944 2.34383 167.633 1.96955 167.227 1.64206C166.822 1.33017 166.292 1.06506 165.731 0.877917C165.155 0.706374 164.531 0.597211 163.908 0.597211C163.3 0.581616 162.692 0.675185 162.131 0.862323C161.586 1.04946 161.071 1.31457 160.651 1.65766C160.214 2.00074 159.871 2.4218 159.591 2.92084C159.295 3.43547 159.076 4.02807 158.936 4.66746C158.812 5.29125 158.734 5.96182 158.718 6.61681C158.702 7.34976 158.765 8.08272 158.858 8.7377C158.952 9.36149 159.076 9.89172 159.248 10.3752C159.419 10.843 159.638 11.2485 159.903 11.6227C160.167 11.997 160.495 12.3401 160.853 12.6208C161.196 12.8859 161.601 13.1042 162.022 13.2758C162.443 13.4161 162.91 13.5097 163.362 13.5565C163.877 13.6189 164.407 13.6033 164.905 13.5409L165.014 13.5253C165.03 13.0107 165.03 12.496 165.03 11.997C165.061 10.9054 165.092 9.86053 165.155 9.00281C165.248 7.98915 165.357 7.20941 165.544 6.58562C165.716 5.94623 165.965 5.4472 166.277 5.04173C166.588 4.62067 166.963 4.29318 167.368 4.04366C167.695 3.84093 168.038 3.68498 168.381 3.59141ZM160.401 19.9192C160.744 20.1063 161.056 20.2779 161.352 20.4182C161.227 20.2623 161.087 20.0907 160.947 19.9036L160.51 19.3578C160.495 19.5449 160.448 19.732 160.401 19.9192ZM159.684 20.1999C158.702 19.6541 157.534 18.9367 156.396 18.2037C155.398 17.5644 154.417 16.8938 153.637 16.2856C152.796 15.6306 152.172 15.0692 151.705 14.539C151.237 14.0087 150.926 13.5253 150.739 13.0731C150.551 12.6208 150.474 12.2153 150.474 11.8255C150.474 11.6071 150.505 11.3888 150.567 11.1861C150.427 11.2017 150.287 11.2329 150.146 11.2485C149.819 11.3108 149.507 11.42 149.211 11.5448C148.899 11.7007 148.603 11.8723 148.338 12.0906C148.105 12.2777 147.902 12.496 147.746 12.7456C147.59 13.0107 147.481 13.307 147.419 13.6189C147.357 13.9464 147.341 14.305 147.357 14.6949C147.388 15.0692 147.466 15.4591 147.653 15.8645C147.84 16.3012 148.136 16.769 148.603 17.2837C149.086 17.7827 149.725 18.3441 150.427 18.8743C151.19 19.4513 152.016 20.0127 152.796 20.4494C153.513 20.8705 154.183 21.1824 154.806 21.4007C155.414 21.619 155.959 21.7438 156.489 21.7906C157.004 21.8373 157.487 21.8217 157.923 21.7126C158.328 21.6034 158.687 21.4319 158.983 21.1824C159.295 20.9172 159.528 20.5898 159.684 20.1999ZM156.708 17.7047C157.799 18.4065 158.921 19.0927 159.871 19.6229C159.934 19.389 159.949 19.1238 159.949 18.8587C159.965 18.7808 159.949 18.7184 159.949 18.656L159.606 18.2193C159.248 17.7827 158.78 17.2057 158.25 16.5663C157.767 15.9737 157.253 15.3343 156.77 14.7885C156.287 14.2115 155.804 13.6813 155.383 13.2446C154.978 12.8235 154.619 12.5116 154.276 12.2621C153.933 12.0282 153.606 11.8411 153.263 11.7007C152.92 11.5448 152.562 11.42 152.188 11.3264C151.861 11.2485 151.518 11.2017 151.19 11.1861C151.113 11.3732 151.066 11.5915 151.066 11.8411C151.066 12.1374 151.128 12.4805 151.284 12.8391C151.44 13.229 151.72 13.6657 152.141 14.1491C152.593 14.6481 153.185 15.194 153.996 15.8177C154.759 16.4103 155.726 17.0653 156.708 17.7047ZM151.845 10.3284C151.72 10.4219 151.627 10.5155 151.533 10.6247C151.798 10.6403 152.063 10.6871 152.328 10.765C152.733 10.8586 153.139 10.9834 153.513 11.1549C153.887 11.3264 154.23 11.5136 154.619 11.7943C154.978 12.0594 155.367 12.3869 155.804 12.8391C156.24 13.2758 156.723 13.8216 157.222 14.3986C157.736 15.0068 158.235 15.615 158.718 16.192C159.061 16.6131 159.404 17.0341 159.778 17.4864L159.715 17.2837C159.56 16.7222 159.341 16.1608 159.076 15.5994C158.812 15.0224 158.515 14.4454 158.173 13.8996C157.861 13.4005 157.518 12.9015 157.144 12.4649C156.77 12.0126 156.365 11.6071 155.959 11.2641C155.554 10.921 155.133 10.6403 154.728 10.4375C154.339 10.2348 153.965 10.0944 153.606 10.0165C153.248 9.95409 152.92 9.9385 152.624 10.0009C152.328 10.0633 152.063 10.1724 151.845 10.3284Z" fill="#152E4A"/>
<path fill-rule="evenodd" clip-rule="evenodd" d="M101.817 72.1306C101.817 72.458 102.082 72.6764 102.409 72.6764H105.386C106.29 72.6764 106.259 71.5068 105.386 71.5068H102.924V66.9999C102.924 66.7036 102.659 66.454 102.409 66.454C102.082 66.454 101.817 66.7036 101.817 66.9999V72.1306ZM98.1546 72.6764C99.0273 72.6764 98.965 71.5068 98.1546 71.5068H95.396V70.15H97.6714C98.4818 70.15 98.4818 68.9804 97.6714 68.9804H95.396V67.6237H97.9987C98.8091 67.6237 98.8403 66.454 97.9987 66.454H94.757C94.4297 66.454 94.196 66.6724 94.196 66.9999V72.1306C94.196 72.458 94.4609 72.6764 94.757 72.6764H98.1546ZM88.9438 72.2553L91.2504 67.2338C91.5309 66.4852 90.5023 66.0642 90.1439 66.7503L89.3334 68.5593L88.3204 70.9298L87.2918 68.5593L86.4814 66.7503C86.0917 66.0018 85.0164 66.5788 85.3748 67.2962L87.7438 72.2865C88.1022 72.9727 88.7568 72.8479 88.9438 72.2553ZM79.2811 70.3839L80.3876 68.1383L81.3851 70.3839H79.2811ZM78.346 72.3645L78.72 71.5847H82.0708L82.4604 72.3645C82.7877 73.0662 83.8787 72.4892 83.489 71.8031L80.9643 66.7503C80.7461 66.2513 80.0915 66.2513 79.8577 66.7503L77.2706 71.8031C77.068 72.1929 77.2706 72.5204 77.5667 72.6764C77.8473 72.7543 78.1745 72.6764 78.346 72.3645ZM70.7093 67.5301H72.4704C73.7016 67.5301 73.6393 69.4015 72.4704 69.4015H70.7093V67.5301ZM70.7093 70.4463H72.1431L73.499 72.3957C74.0601 73.0662 74.9952 72.4269 74.5121 71.7095L73.312 70.2436C75.229 69.4638 74.7458 66.4229 72.4704 66.4229H70.0703C69.7742 66.4229 69.5093 66.6412 69.5093 66.9687V72.0994C69.5093 72.8791 70.7093 72.8791 70.7093 72.0682V70.4463ZM63.2908 72.0994C63.2908 72.9103 64.4909 72.8791 64.4909 72.0994V67.5613H65.987C66.7975 67.5613 66.7975 66.3917 65.987 66.3917H61.7323C60.9531 66.3917 60.9531 67.5613 61.7323 67.5613H63.322V72.0994H63.2908Z" fill="#152E4A"/>
</g>
<defs>
<clipPath id="clip0_3_24">
<rect width="195" height="88.4161" fill="white"/>
</clipPath>
</defs>
</svg>
